<svg width="1162" height="793" viewBox="0 0 1162 793" fill="none" xmlns="http://www.w3.org/2000/svg">
<g id="responsive 2" clip-path="url(#clip0)">
<g id="undraw file sync ot38 1" filter="url(#filter0_d)">
<path id="Vector 2" d="M1191.52 692.243H30V694.243H1191.52V692.243Z" fill="#3F3D56"/>
<g id="tree">
<path id="Vector 3" d="M301.253 592.49C303.495 669.284 258.625 697.427 202.314 699.072C201.006 699.11 199.704 699.133 198.408 699.142C195.796 699.162 193.21 699.118 190.65 699.011C139.722 696.897 99.4103 669.864 97.3246 598.446C95.1661 524.537 186.903 428.507 193.785 421.404C193.792 421.404 193.792 421.404 193.798 421.397C194.059 421.126 194.193 420.991 194.193 420.991C194.193 420.991 299.01 515.703 301.253 592.49Z" fill="#00FFE1"/>
<path id="Vector 4" d="M198.26 687.434L234.031 634.239L198.333 693.156L198.408 699.142C195.796 699.162 193.21 699.118 190.65 699.012L192.424 622.069L192.375 621.476L192.441 621.361L192.611 614.09L153.438 557.216L192.564 608.649L192.703 610.186L194.043 552.053L160.208 493.087L194.14 541.84L193.785 421.404L193.786 421.003L193.798 421.397L196.044 516.317L226.88 477.761L196.145 524.495L196.818 576.493L225.193 525.744L196.922 584.138L197.296 613.052L238.563 542.359L197.422 623.138L198.26 687.434Z" fill="#3F3D56"/>
</g>
<g id="phone">
<path id="Vector 5" d="M896.183 140.005H894.693V100.252C894.693 97.2304 894.082 94.2385 892.895 91.4469C891.708 88.6554 889.969 86.119 887.776 83.9824C885.582 81.8459 882.979 80.1511 880.113 78.9948C877.248 77.8385 874.176 77.2434 871.075 77.2434H784.618C781.517 77.2434 778.446 77.8385 775.58 78.9948C772.714 80.1511 770.111 81.8459 767.918 83.9824C765.724 86.119 763.985 88.6554 762.798 91.4469C761.611 94.2385 761 97.2304 761 100.252V318.345C761 321.366 761.611 324.358 762.798 327.15C763.985 329.941 765.724 332.478 767.918 334.614C770.111 336.751 772.714 338.446 775.58 339.602C778.446 340.758 781.517 341.353 784.618 341.353H871.075C874.176 341.353 877.248 340.758 880.113 339.602C882.979 338.446 885.582 336.751 887.776 334.614C889.969 332.478 891.708 329.941 892.895 327.15C894.082 324.358 894.693 321.366 894.693 318.345V168.303H896.183V140.005Z" fill="#3F3D56"/>
<path id="Vector 6" d="M890 100.358V318.281C890.001 322.841 888.13 327.215 884.8 330.44C881.469 333.665 876.952 335.477 872.241 335.478H784.759C780.048 335.477 775.531 333.665 772.2 330.44C768.87 327.215 766.999 322.841 767 318.281V100.358C767.001 95.7983 768.872 91.4258 772.202 88.2018C775.532 84.9779 780.049 83.1665 784.759 83.166H795.372C794.85 84.4063 794.651 85.7519 794.792 87.0843C794.934 88.4167 795.411 89.695 796.183 90.8066C796.955 91.9181 797.998 92.8289 799.219 93.4586C800.44 94.0882 801.802 94.4176 803.186 94.4175H853.063C854.447 94.4176 855.809 94.0883 857.031 93.4586C858.252 92.8289 859.294 91.9182 860.066 90.8066C860.838 89.695 861.316 88.4167 861.457 87.0843C861.599 85.7519 861.399 84.4063 860.877 83.166H872.241C876.951 83.1665 881.468 84.9779 884.798 88.2018C888.128 91.4258 889.999 95.7983 890 100.358Z" fill="#F2F2F2"/>
<path id="Vector 7" d="M875 117.262H801V120.185H875V117.262Z" fill="#CCCCCC"/>
<path id="Vector 8" d="M875 126.029H801V127.978H875V126.029Z" fill="#CCCCCC"/>
<path id="Vector 9" d="M875 133.823H801V136.745H875V133.823Z" fill="#CCCCCC"/>
<path id="Vector 10" d="M793 119.211H777V134.797H793V119.211Z" fill="#CCCCCC"/>
<path id="Vector 11" d="M875 306.253H801V309.175H875V306.253Z" fill="#CCCCCC"/>
<path id="Vector 12" d="M875 315.02H801V316.969H875V315.02Z" fill="#CCCCCC"/>
<path id="Vector 13" d="M875 322.814H801V325.736H875V322.814Z" fill="#CCCCCC"/>
<path id="Vector 14" d="M793 308.201H777V323.788H793V308.201Z" fill="#CCCCCC"/>
</g>
<path id="Vector 15" d="M706.028 452H564.788V457.248H706.028V452Z" fill="#E6E6E6"/>
<path id="Vector 16" d="M706.028 468.619H564.788V473.867H706.028V468.619Z" fill="#E6E6E6"/>
<path id="Vector 17" d="M706.028 485.238H564.788V490.487H706.028V485.238Z" fill="#E6E6E6"/>
<g id="rightarrow">
<path id="Vector 18" d="M954.273 333.29C945.976 324.253 934.81 318.361 922.667 316.612L927.865 311.916L922.115 311.626L915 318.056L921.431 325.171L927.181 325.461L922.872 320.697C935.122 322.675 946.177 329.194 953.837 338.955C961.496 348.717 965.198 361.006 964.206 373.374C963.213 385.742 957.598 397.283 948.48 405.698C939.362 414.113 927.408 418.785 915 418.784V422.784C925.365 422.784 935.506 419.765 944.184 414.097C952.861 408.428 959.701 400.355 963.866 390.864C968.031 381.372 969.342 370.873 967.638 360.649C965.934 350.425 961.29 340.919 954.273 333.29Z" fill="#3F3D56"/>
</g>
<g id="leftarrow">
<path id="Vector 19" d="M263.728 333.29C272.024 324.253 283.19 318.361 295.333 316.612L290.135 311.916L295.886 311.626L303 318.056L296.57 325.171L290.819 325.461L295.128 320.697C282.879 322.675 271.823 329.194 264.164 338.955C256.504 348.717 252.802 361.006 253.795 373.374C254.787 385.742 260.402 397.283 269.52 405.698C278.639 414.113 290.592 418.785 303 418.784V422.784C292.635 422.784 282.494 419.765 273.817 414.097C265.139 408.428 258.3 400.355 254.135 390.864C249.97 381.372 248.659 370.873 250.362 360.649C252.066 350.425 256.71 340.919 263.728 333.29Z" fill="#3F3D56"/>
</g>
<g id="tablet">
<path id="Vector 20" d="M573.438 47.6993H572.092V45.3443H573.101C573.28 45.3443 573.451 45.2734 573.577 45.1472C573.703 45.021 573.774 44.8499 573.774 44.6714V32.5597C573.774 32.3813 573.703 32.2101 573.577 32.084C573.451 31.9578 573.28 31.8869 573.101 31.8869H572.092V25.0085C572.092 23.0842 571.713 21.1787 570.977 19.4008C570.24 17.623 569.161 16.0076 567.8 14.6469C566.439 13.2862 564.824 12.2068 563.046 11.4704C561.268 10.734 559.363 10.355 557.439 10.355H555.943V8.67287C555.943 8.49441 555.872 8.32327 555.746 8.19708C555.62 8.07089 555.449 8 555.27 8H543.159C542.98 8 542.809 8.07089 542.683 8.19708C542.557 8.32327 542.486 8.49441 542.486 8.67287V10.355H323.653C321.729 10.355 319.824 10.734 318.046 11.4704C316.268 12.2068 314.653 13.2862 313.292 14.6469C311.931 16.0076 310.852 17.623 310.115 19.4008C309.379 21.1787 309 23.0842 309 25.0085V336.846C309 338.771 309.379 340.676 310.115 342.454C310.852 344.232 311.931 345.847 313.292 347.208C314.653 348.569 316.268 349.648 318.046 350.385C319.824 351.121 321.729 351.5 323.653 351.5H557.439C559.363 351.5 561.268 351.121 563.046 350.385C564.824 349.648 566.439 348.569 567.8 347.208C569.161 345.847 570.24 344.232 570.977 342.454C571.713 340.676 572.092 338.771 572.092 336.846V61.1567H573.438C573.616 61.1567 573.787 61.0858 573.914 60.9596C574.04 60.8334 574.111 60.6623 574.111 60.4838V48.3722C574.111 48.1937 574.04 48.0226 573.914 47.8964C573.787 47.7702 573.616 47.6993 573.438 47.6993Z" fill="#3F3D56"/>
<path id="Vector 21" d="M529.514 34H388.274V39.2482H529.514V34Z" fill="#CCCCCC"/>
<path id="Vector 22" d="M529.514 50.6194H388.274V55.8676H529.514V50.6194Z" fill="#CCCCCC"/>
<path id="Vector 23" d="M529.514 67.2388H388.274V72.487H529.514V67.2388Z" fill="#CCCCCC"/>
<path id="Vector 24" d="M375.485 37.2434H343.485V69.2434H375.485V37.2434Z" fill="#CCCCCC"/>
<path id="Vector 25" d="M529.028 283H387.788V288.248H529.028V283Z" fill="#CCCCCC"/>
<path id="Vector 26" d="M529.028 299.619H387.788V304.867H529.028V299.619Z" fill="#CCCCCC"/>
<path id="Vector 27" d="M529.028 316.238H387.788V321.487H529.028V316.238Z" fill="#CCCCCC"/>
<path id="Vector 28" d="M375 286.243H343V318.243H375V286.243Z" fill="#CCCCCC"/>
<path id="Vector 29" d="M378.863 204.138C392.043 204.138 402.727 193.454 402.727 180.275C402.727 167.095 392.043 156.411 378.863 156.411C365.684 156.411 355 167.095 355 180.275C355 193.454 365.684 204.138 378.863 204.138Z" fill="#00FFE1"/>
<path id="Vector 30" d="M442.5 199.774C453.269 199.774 462 191.044 462 180.274C462 169.505 453.269 160.774 442.5 160.774C431.73 160.774 423 169.505 423 180.274C423 191.044 431.73 199.774 442.5 199.774Z" fill="#00FFE1"/>
<path id="Vector 31" d="M506.136 192.138C512.688 192.138 517.999 186.827 517.999 180.275C517.999 173.722 512.688 168.411 506.136 168.411C499.584 168.411 494.272 173.722 494.272 180.275C494.272 186.827 499.584 192.138 506.136 192.138Z" fill="#00FFE1"/>
</g>
<path id="Vector 32" d="M800 227.243C807.18 227.243 813 221.423 813 214.243C813 207.063 807.18 201.243 800 201.243C792.82 201.243 787 207.063 787 214.243C787 221.423 792.82 227.243 800 227.243Z" fill="#00FFE1"/>
<path id="Vector 33" d="M834 224.243C839.523 224.243 844 219.766 844 214.243C844 208.72 839.523 204.243 834 204.243C828.477 204.243 824 208.72 824 214.243C824 219.766 828.477 224.243 834 224.243Z" fill="#00FFE1"/>
<path id="Vector 34" d="M868.5 221.243C872.09 221.243 875 218.109 875 214.243C875 210.377 872.09 207.243 868.5 207.243C864.91 207.243 862 210.377 862 214.243C862 218.109 864.91 221.243 868.5 221.243Z" fill="#00FFE1"/>
<g id="laptop">
<path id="Vector 35" d="M869.908 404.811H661.186V400.509H566.544V404.811H356.962C355.108 404.811 353.272 405.176 351.559 405.886C349.846 406.595 348.29 407.635 346.979 408.946C345.668 410.257 344.628 411.814 343.918 413.527C343.209 415.239 342.844 417.075 342.844 418.929V704.733C342.844 708.478 344.331 712.069 346.979 714.716C349.627 717.364 353.218 718.852 356.962 718.852H869.908C873.652 718.852 877.243 717.364 879.891 714.716C882.539 712.069 884.026 708.478 884.026 704.733V418.929C884.026 417.075 883.661 415.239 882.951 413.527C882.242 411.814 881.202 410.257 879.891 408.946C878.58 407.635 877.023 406.595 875.31 405.886C873.597 405.176 871.762 404.811 869.908 404.811Z" fill="#3F3D56"/>
<path id="Vector 36" d="M865.098 429.762H361.772V713.689H865.098V429.762Z" fill="#F2F2F2"/>
<path id="Vector 37" d="M613.005 422.019C615.856 422.019 618.167 419.708 618.167 416.856C618.167 414.005 615.856 411.694 613.005 411.694C610.154 411.694 607.843 414.005 607.843 416.856C607.843 419.708 610.154 422.019 613.005 422.019Z" fill="#00FFE1"/>
<path id="Vector 38" d="M898.158 708.527H849.037V704.988C849.037 704.896 849.019 704.804 848.983 704.719C848.948 704.634 848.896 704.557 848.831 704.492C848.766 704.426 848.689 704.375 848.604 704.339C848.518 704.304 848.427 704.286 848.335 704.286H831.493C831.401 704.286 831.31 704.304 831.225 704.339C831.14 704.375 831.062 704.426 830.997 704.492C830.932 704.557 830.88 704.634 830.845 704.719C830.81 704.804 830.792 704.896 830.792 704.988V708.527H820.266V704.988C820.266 704.896 820.248 704.804 820.212 704.719C820.177 704.634 820.125 704.557 820.06 704.492C819.995 704.426 819.918 704.375 819.833 704.339C819.747 704.304 819.656 704.286 819.564 704.286H802.723C802.63 704.286 802.539 704.304 802.454 704.339C802.369 704.375 802.291 704.426 802.226 704.492C802.161 704.557 802.109 704.634 802.074 704.719C802.039 704.804 802.021 704.896 802.021 704.988V708.527H791.495V704.988C791.495 704.896 791.477 704.804 791.441 704.719C791.406 704.634 791.354 704.557 791.289 704.492C791.224 704.426 791.147 704.375 791.062 704.339C790.976 704.304 790.885 704.286 790.793 704.286H773.951C773.859 704.286 773.768 704.304 773.683 704.339C773.598 704.375 773.52 704.426 773.455 704.492C773.39 704.557 773.338 704.634 773.303 704.719C773.268 704.804 773.25 704.896 773.25 704.988V708.527H762.724V704.988C762.724 704.896 762.706 704.804 762.67 704.719C762.635 704.634 762.583 704.557 762.518 704.492C762.453 704.426 762.376 704.375 762.291 704.339C762.205 704.304 762.114 704.286 762.022 704.286H745.18C745.088 704.286 744.997 704.304 744.912 704.339C744.827 704.375 744.749 704.426 744.684 704.492C744.619 704.557 744.567 704.634 744.532 704.719C744.497 704.804 744.479 704.896 744.479 704.988V708.527H733.953V704.988C733.953 704.896 733.935 704.804 733.899 704.719C733.864 704.634 733.812 704.557 733.747 704.492C733.682 704.426 733.605 704.375 733.52 704.339C733.434 704.304 733.343 704.286 733.251 704.286H716.409C716.317 704.286 716.226 704.304 716.141 704.339C716.056 704.375 715.978 704.426 715.913 704.492C715.848 704.557 715.796 704.634 715.761 704.719C715.726 704.804 715.708 704.896 715.708 704.988V708.527H705.182V704.988C705.182 704.896 705.164 704.804 705.128 704.719C705.093 704.634 705.041 704.557 704.976 704.492C704.911 704.426 704.834 704.375 704.748 704.339C704.663 704.304 704.572 704.286 704.48 704.286H687.638C687.546 704.286 687.455 704.304 687.37 704.339C687.285 704.375 687.207 704.426 687.142 704.492C687.077 704.557 687.025 704.634 686.99 704.719C686.955 704.804 686.937 704.896 686.937 704.988V708.527H676.411V704.988C676.411 704.896 676.392 704.804 676.357 704.719C676.322 704.634 676.27 704.557 676.205 704.492C676.14 704.426 676.063 704.375 675.977 704.339C675.892 704.304 675.801 704.286 675.709 704.286H543.783C543.691 704.286 543.6 704.304 543.515 704.339C543.429 704.375 543.352 704.426 543.287 704.492C543.222 704.557 543.17 704.634 543.135 704.719C543.1 704.804 543.081 704.896 543.081 704.988V708.527H532.555V704.988C532.555 704.896 532.537 704.804 532.502 704.719C532.467 704.634 532.415 704.557 532.35 704.492C532.285 704.426 532.207 704.375 532.122 704.339C532.037 704.304 531.946 704.286 531.854 704.286H515.012C514.92 704.286 514.829 704.304 514.744 704.339C514.658 704.375 514.581 704.426 514.516 704.492C514.451 704.557 514.399 704.634 514.364 704.719C514.329 704.804 514.31 704.896 514.31 704.988V708.527H503.784V704.988C503.784 704.896 503.766 704.804 503.731 704.719C503.696 704.634 503.644 704.557 503.579 704.492C503.514 704.426 503.436 704.375 503.351 704.339C503.266 704.304 503.175 704.286 503.083 704.286H486.241C486.149 704.286 486.058 704.304 485.973 704.339C485.887 704.375 485.81 704.426 485.745 704.492C485.68 704.557 485.628 704.634 485.593 704.719C485.558 704.804 485.539 704.896 485.539 704.988V708.527H475.013V704.988C475.013 704.896 474.995 704.804 474.96 704.719C474.925 704.634 474.873 704.557 474.808 704.492C474.743 704.426 474.665 704.375 474.58 704.339C474.495 704.304 474.404 704.286 474.312 704.286H457.47C457.378 704.286 457.287 704.304 457.202 704.339C457.116 704.375 457.039 704.426 456.974 704.492C456.909 704.557 456.857 704.634 456.822 704.719C456.786 704.804 456.768 704.896 456.768 704.988V708.527H446.242V704.988C446.242 704.896 446.224 704.804 446.189 704.719C446.154 704.634 446.102 704.557 446.037 704.492C445.972 704.426 445.894 704.375 445.809 704.339C445.724 704.304 445.633 704.286 445.541 704.286H428.699C428.607 704.286 428.516 704.304 428.43 704.339C428.345 704.375 428.268 704.426 428.203 704.492C428.138 704.557 428.086 704.634 428.051 704.719C428.015 704.804 427.997 704.896 427.997 704.988V708.527H417.471V704.988C417.471 704.896 417.453 704.804 417.418 704.719C417.383 704.634 417.331 704.557 417.266 704.492C417.201 704.426 417.123 704.375 417.038 704.339C416.953 704.304 416.862 704.286 416.77 704.286H399.928C399.836 704.286 399.745 704.304 399.659 704.339C399.574 704.375 399.497 704.426 399.432 704.492C399.367 704.557 399.315 704.634 399.28 704.719C399.244 704.804 399.226 704.896 399.226 704.988V708.527H388.7V704.988C388.7 704.896 388.682 704.804 388.647 704.719C388.612 704.634 388.56 704.557 388.495 704.492C388.43 704.426 388.352 704.375 388.267 704.339C388.182 704.304 388.091 704.286 387.999 704.286H371.157C371.065 704.286 370.974 704.304 370.888 704.339C370.803 704.375 370.726 704.426 370.661 704.492C370.596 704.557 370.544 704.634 370.509 704.719C370.473 704.804 370.455 704.896 370.455 704.988V708.527H338.176C333.709 708.527 329.425 710.301 326.267 713.46C323.108 716.618 321.334 720.902 321.334 725.368V732.984C321.334 737.451 323.108 741.734 326.267 744.893C329.425 748.051 333.709 749.825 338.176 749.825H898.158C902.625 749.825 906.908 748.051 910.067 744.893C913.225 741.734 915 737.451 915 732.984V725.368C915 723.157 914.564 720.967 913.718 718.923C912.871 716.88 911.631 715.024 910.067 713.46C908.503 711.896 906.646 710.655 904.603 709.809C902.56 708.962 900.37 708.527 898.158 708.527Z" fill="#3F3D56"/>
<path id="Vector 39" d="M706.028 452H564.788V457.248H706.028V452Z" fill="#CCCCCC"/>
<path id="Vector 40" d="M706.028 468.619H564.788V473.867H706.028V468.619Z" fill="#CCCCCC"/>
<path id="Vector 41" d="M706.028 485.238H564.788V490.487H706.028V485.238Z" fill="#CCCCCC"/>
<path id="Vector 42" d="M552 455.243H520V487.243H552V455.243Z" fill="#CCCCCC"/>
<path id="Vector 43" d="M706.028 638.999H564.788V644.248H706.028V638.999Z" fill="#CCCCCC"/>
<path id="Vector 44" d="M706.028 655.619H564.788V660.867H706.028V655.619Z" fill="#CCCCCC"/>
<path id="Vector 45" d="M706.028 672.238H564.788V677.487H706.028V672.238Z" fill="#CCCCCC"/>
<path id="Vector 46" d="M552 642.243H520V674.243H552V642.243Z" fill="#CCCCCC"/>
<g id="uparrow">
<path id="Vector 47" d="M635 625.243C665.928 625.243 691 600.171 691 569.243C691 538.315 665.928 513.243 635 513.243C604.072 513.243 579 538.315 579 569.243C579 600.171 604.072 625.243 635 625.243Z" fill="#00FFE1"/>
<path id="Vector 48" d="M655.834 581.558L634.946 539.37L614.166 581.612L625.908 581.597V599.115H644.083V581.573L655.834 581.558Z" fill="#D0CDE1"/>
</g>
</g>
</g>
</g>
<defs>
<filter id="filter0_d" x="26" y="8" width="1169.52" height="749.825" filterUnits="userSpaceOnUse" color-interpolation-filters="sRGB">
<feFlood flood-opacity="0" result="BackgroundImageFix"/>
<feColorMatrix in="SourceAlpha" type="matrix" values="0 0 0 0 0 0 0 0 0 0 0 0 0 0 0 0 0 0 127 0"/>
<feOffset dy="4"/>
<feGaussianBlur stdDeviation="2"/>
<feColorMatrix type="matrix" values="0 0 0 0 0 0 0 0 0 0 0 0 0 0 0 0 0 0 0.25 0"/>
<feBlend mode="normal" in2="BackgroundImageFix" result="effect1_dropShadow"/>
<feBlend mode="normal" in="SourceGraphic" in2="effect1_dropShadow" result="shape"/>
</filter>
<clipPath id="clip0">
<rect width="1162" height="793" fill="white"/>
</clipPath>
</defs>
</svg>
